<svg width="8" height="22" viewBox="0 0 8 22" fill="none" xmlns="http://www.w3.org/2000/svg">
<path d="M3.5 21.0005C3.5 21.2766 3.72386 21.5005 4 21.5005C4.27614 21.5005 4.5 21.2766 4.5 21.0005L3.5 21.0005ZM4.35355 0.646935C4.15829 0.451674 3.84171 0.451674 3.64645 0.646934L0.464467 3.82891C0.269205 4.02418 0.269205 4.34076 0.464467 4.53602C0.659729 4.73128 0.976311 4.73128 1.17157 4.53602L4 1.7076L6.82843 4.53602C7.02369 4.73129 7.34027 4.73129 7.53553 4.53602C7.7308 4.34076 7.7308 4.02418 7.53553 3.82891L4.35355 0.646935ZM4.5 21.0005L4.5 1.00049L3.5 1.00049L3.5 21.0005L4.5 21.0005Z" fill="white"/>
</svg>
