<svg width="23" height="16" viewBox="0 0 23 16" fill="none" xmlns="http://www.w3.org/2000/svg">
<path d="M1.33325 7.00049C0.780967 7.00049 0.333252 7.4482 0.333252 8.00049C0.333252 8.55277 0.780967 9.00049 1.33325 9.00049L1.33325 7.00049ZM22.0404 8.7076C22.4309 8.31707 22.4309 7.68391 22.0404 7.29338L15.6764 0.929422C15.2859 0.538897 14.6527 0.538897 14.2622 0.929422C13.8717 1.31995 13.8717 1.95311 14.2622 2.34364L19.919 8.00049L14.2622 13.6573C13.8717 14.0479 13.8717 14.681 14.2622 15.0716C14.6527 15.4621 15.2859 15.4621 15.6764 15.0716L22.0404 8.7076ZM1.33325 9.00049L21.3333 9.00049L21.3333 7.00049L1.33325 7.00049L1.33325 9.00049Z" fill="white"/>
</svg>
