<svg width="64" height="64" viewBox="0 0 64 64" fill="none" xmlns="http://www.w3.org/2000/svg">
<path d="M25.6001 53.3333H38.4001C49.0667 53.3333 53.3334 49.0666 53.3334 38.4V25.6C53.3334 14.9333 49.0667 10.6666 38.4001 10.6666H25.6001C14.9334 10.6666 10.6667 14.9333 10.6667 25.6V38.4C10.6667 49.0666 14.9334 53.3333 25.6001 53.3333Z" stroke="#634AFF" stroke-width="4" stroke-linecap="round" stroke-linejoin="round"/>
<path d="M28.0001 45.3333H36.0001C42.6667 45.3333 45.3334 42.6666 45.3334 36V28C45.3334 21.3333 42.6667 18.6666 36.0001 18.6666H28.0001C21.3334 18.6666 18.6667 21.3333 18.6667 28V36C18.6667 42.6666 21.3334 45.3333 28.0001 45.3333Z" stroke="#634AFF" stroke-width="4" stroke-linecap="round" stroke-linejoin="round"/>
<path d="M21.3601 10.6667V5.33337" stroke="#634AFF" stroke-width="4" stroke-linecap="round" stroke-linejoin="round"/>
<path d="M32 10.6667V5.33337" stroke="#634AFF" stroke-width="4" stroke-linecap="round" stroke-linejoin="round"/>
<path d="M42.6667 10.6667V5.33337" stroke="#634AFF" stroke-width="4" stroke-linecap="round" stroke-linejoin="round"/>
<path d="M53.3333 21.3334H58.6666" stroke="#634AFF" stroke-width="4" stroke-linecap="round" stroke-linejoin="round"/>
<path d="M53.3333 32H58.6666" stroke="#634AFF" stroke-width="4" stroke-linecap="round" stroke-linejoin="round"/>
<path d="M53.3333 42.6666H58.6666" stroke="#634AFF" stroke-width="4" stroke-linecap="round" stroke-linejoin="round"/>
<path d="M42.6667 53.3334V58.6667" stroke="#634AFF" stroke-width="4" stroke-linecap="round" stroke-linejoin="round"/>
<path d="M32.0266 53.3334V58.6667" stroke="#634AFF" stroke-width="4" stroke-linecap="round" stroke-linejoin="round"/>
<path d="M21.3601 53.3334V58.6667" stroke="#634AFF" stroke-width="4" stroke-linecap="round" stroke-linejoin="round"/>
<path d="M5.33325 21.3334H10.6666" stroke="#634AFF" stroke-width="4" stroke-linecap="round" stroke-linejoin="round"/>
<path d="M5.33325 32H10.6666" stroke="#634AFF" stroke-width="4" stroke-linecap="round" stroke-linejoin="round"/>
<path d="M5.33325 42.6666H10.6666" stroke="#634AFF" stroke-width="4" stroke-linecap="round" stroke-linejoin="round"/>
</svg>
