<svg width="64" height="64" viewBox="0 0 64 64" fill="none" xmlns="http://www.w3.org/2000/svg">
<path d="M49.2533 44.8801L50.2933 53.3067C50.5599 55.52 48.1866 57.0666 46.2933 55.92L35.1199 49.28C33.8932 49.28 32.6933 49.2001 31.5199 49.0401C33.4933 46.7201 34.6666 43.7867 34.6666 40.6133C34.6666 33.04 28.1066 26.9068 19.9999 26.9068C16.9066 26.9068 14.0533 27.7867 11.6799 29.3334C11.5999 28.6667 11.5732 28 11.5732 27.3067C11.5732 15.1733 22.1066 5.33337 35.1199 5.33337C48.1332 5.33337 58.6666 15.1733 58.6666 27.3067C58.6666 34.5067 54.9599 40.8801 49.2533 44.8801Z" stroke="#634AFF" stroke-width="4" stroke-linecap="round" stroke-linejoin="round"/>
<path d="M34.6666 40.6133C34.6666 43.7866 33.4933 46.72 31.5199 49.04C28.8799 52.24 24.6933 54.2933 19.9999 54.2933L13.0399 58.4266C11.8666 59.1466 10.3732 58.16 10.5332 56.8L11.1999 51.5467C7.62658 49.0667 5.33325 45.0933 5.33325 40.6133C5.33325 35.9199 7.83993 31.7867 11.6799 29.3333C14.0533 27.7867 16.9066 26.9067 19.9999 26.9067C28.1066 26.9067 34.6666 33.0399 34.6666 40.6133Z" stroke="#634AFF" stroke-width="4" stroke-linecap="round" stroke-linejoin="round"/>
</svg>
