<svg width="64" height="64" viewBox="0 0 64 64" fill="none" xmlns="http://www.w3.org/2000/svg">
<path d="M24.4266 28.9867C24.1599 28.96 23.8399 28.96 23.5466 28.9867C17.1999 28.7734 12.1599 23.5734 12.1599 17.1734C12.1599 10.64 17.4399 5.33337 23.9999 5.33337C30.5332 5.33337 35.8399 10.64 35.8399 17.1734C35.8132 23.5734 30.7732 28.7734 24.4266 28.9867Z" stroke="#634AFF" stroke-width="4" stroke-linecap="round" stroke-linejoin="round"/>
<path d="M43.76 10.6666C48.9333 10.6666 53.0933 14.8533 53.0933 20C53.0933 25.04 49.0933 29.1466 44.1067 29.3333C43.8933 29.3066 43.6533 29.3066 43.4133 29.3333" stroke="#634AFF" stroke-width="4" stroke-linecap="round" stroke-linejoin="round"/>
<path d="M11.0934 38.8266C4.64008 43.1466 4.64008 50.1866 11.0934 54.48C18.4268 59.3866 30.4534 59.3866 37.7868 54.48C44.2401 50.16 44.2401 43.12 37.7868 38.8266C30.4801 33.9466 18.4534 33.9466 11.0934 38.8266Z" stroke="#634AFF" stroke-width="4" stroke-linecap="round" stroke-linejoin="round"/>
<path d="M48.9067 53.3334C50.8267 52.9334 52.6401 52.16 54.1334 51.0134C58.2934 47.8934 58.2934 42.7467 54.1334 39.6267C52.6667 38.5067 50.8801 37.76 48.9867 37.3334" stroke="#634AFF" stroke-width="4" stroke-linecap="round" stroke-linejoin="round"/>
</svg>
