<svg width="48" height="48" viewBox="0 0 48 48" fill="none" xmlns="http://www.w3.org/2000/svg">
<rect x="0.5" y="0.5" width="47" height="47" rx="23.5" stroke="#634AFF"/>
<path d="M14 23C13.4477 23 13 23.4477 13 24C13 24.5523 13.4477 25 14 25L14 23ZM34.7071 24.7071C35.0976 24.3166 35.0976 23.6834 34.7071 23.2929L28.3431 16.9289C27.9526 16.5384 27.3195 16.5384 26.9289 16.9289C26.5384 17.3195 26.5384 17.9526 26.9289 18.3431L32.5858 24L26.9289 29.6569C26.5384 30.0474 26.5384 30.6805 26.9289 31.0711C27.3195 31.4616 27.9526 31.4616 28.3431 31.0711L34.7071 24.7071ZM14 25L34 25L34 23L14 23L14 25Z" fill="white"/>
</svg>
