<svg width="48" height="48" viewBox="0 0 48 48" fill="none" xmlns="http://www.w3.org/2000/svg">
<rect x="0.270833" y="47.7292" width="47.4583" height="47.4583" rx="23.7292" transform="rotate(-90 0.270833 47.7292)" stroke="white" stroke-width="0.541667"/>
<path d="M23.5 34C23.5 34.2761 23.7239 34.5 24 34.5C24.2761 34.5 24.5 34.2761 24.5 34L23.5 34ZM24.3536 13.6464C24.1583 13.4512 23.8417 13.4512 23.6464 13.6464L20.4645 16.8284C20.2692 17.0237 20.2692 17.3403 20.4645 17.5355C20.6597 17.7308 20.9763 17.7308 21.1716 17.5355L24 14.7071L26.8284 17.5355C27.0237 17.7308 27.3403 17.7308 27.5355 17.5355C27.7308 17.3403 27.7308 17.0237 27.5355 16.8284L24.3536 13.6464ZM24.5 34L24.5 14L23.5 14L23.5 34L24.5 34Z" fill="white"/>
</svg>
